<?xml version="1.0" encoding="UTF-8"?>
<svg version="1.1" xmlns="http://www.w3.org/2000/svg" width="100" height="100">
<path d="M0 0 C1.92699988 0.91790103 3.8391994 1.85916413 5.74511719 2.82006836 C7.70170418 3.8039955 9.67279718 4.75227711 11.6484375 5.69726562 C23.52330188 11.51926002 23.52330188 11.51926002 26.8203125 18.11328125 C27.73328782 32.26439865 22.83423857 44.63223162 13.5703125 55.23828125 C-2.49785314 72.19762247 -2.49785314 72.19762247 -11.2890625 73.40234375 C-21.89834879 73.21423584 -30.7166218 63.28135565 -37.59765625 56.1640625 C-46.3610727 45.80970811 -51.27449926 33.88968137 -51.67578125 20.24609375 C-50.88775095 16.85818394 -49.37096543 14.80401579 -47.1796875 12.11328125 C-44.69509114 10.58539728 -42.43735971 9.35982385 -39.8046875 8.17578125 C-38.36670862 7.50101961 -36.92921746 6.8252177 -35.4921875 6.1484375 C-34.409375 5.64594482 -34.409375 5.64594482 -33.3046875 5.13330078 C-31.28594893 4.16428771 -29.32704982 3.12922543 -27.3671875 2.046875 C-26.46492432 1.55852173 -26.46492432 1.55852173 -25.54443359 1.06030273 C-23.90995051 0.17058061 -22.28282386 -0.73261814 -20.65625 -1.63671875 C-13.04927364 -4.37181138 -7.28146316 -3.31798443 0 0 Z " fill="#37CFED" transform="translate(62.1796875,14.88671875)"/>
<path d="M0 0 C6.05376887 0.93900339 11.21618761 3.72160606 16.69311523 6.35498047 C18.55437972 7.24611219 20.42410714 8.11741441 22.29492188 8.98828125 C24.06899414 9.83712891 24.06899414 9.83712891 25.87890625 10.703125 C26.9572876 11.21520508 28.03566895 11.72728516 29.14672852 12.25488281 C32.83428961 14.510268 35.07310514 17.14621029 37 21 C37.91297532 35.1511174 33.01392607 47.51895037 23.75 58.125 C7.68183436 75.08434122 7.68183436 75.08434122 -1.109375 76.2890625 C-11.72096462 76.10091375 -20.51748958 66.17046919 -27.4140625 59.06640625 C-33.60852824 52.0498497 -38.51589459 43.27565883 -40 34 C-39.236875 33.5875 -38.47375 33.175 -37.6875 32.75 C-35.03624218 31.02359956 -33.79306439 29.54499462 -32 27 C-31.84144531 27.75023438 -31.68289062 28.50046875 -31.51953125 29.2734375 C-27.90149724 45.14481323 -20.65269302 54.83162534 -7.7109375 64.56640625 C-4.39796301 66.31836826 -2.70186148 66.59022026 1 66 C3.36690638 64.61979404 5.27838846 63.33336177 7.375 61.625 C7.94154297 61.17165283 8.50808594 60.71830566 9.09179688 60.2512207 C17.97315623 52.93321351 24.40123303 44.40708772 27 33 C27 29.37 27 25.74 27 22 C17.43 17.38 7.86 12.76 -2 8 C-1.34 5.36 -0.68 2.72 0 0 Z " fill="#007691" transform="translate(52,12)"/>
<path d="M0 0 C0.33 0 0.66 0 1 0 C1.15855469 0.75023437 1.31710938 1.50046875 1.48046875 2.2734375 C5.0959171 18.13347058 12.28834439 27.91508766 25.38671875 37.46875 C28.00332805 39.00195007 30.01331166 39.61253773 33 40 C32.34 40.99 31.68 41.98 31 43 C30.60986284 44.9896995 30.26797351 46.99019869 30 49 C22.81709329 47.75079883 18.35770075 43.75706165 13 39 C12.14792969 38.25492188 11.29585937 37.50984375 10.41796875 36.7421875 C1.8982838 28.81142086 -5.12882348 18.69485323 -7 7 C-6.21625 6.5875 -5.4325 6.175 -4.625 5.75 C-1.94108344 3.9607223 -1.11901051 2.95011861 0 0 Z " fill="#018BAA" transform="translate(19,39)"/>
<path d="M0 0 C3.12578143 1.6720747 5.39281175 3.7856235 7 7 C7.0962762 9.01896864 7.12981825 11.0412429 7.125 13.0625 C7.12886719 14.68865234 7.12886719 14.68865234 7.1328125 16.34765625 C7 19 7 19 6 20 C4.37742456 20.0991657 2.75060169 20.13079777 1.125 20.1328125 C0.14015625 20.13410156 -0.8446875 20.13539062 -1.859375 20.13671875 C-2.89578125 20.13285156 -3.9321875 20.12898438 -5 20.125 C-6.55460937 20.13080078 -6.55460937 20.13080078 -8.140625 20.13671875 C-9.12546875 20.13542969 -10.1103125 20.13414063 -11.125 20.1328125 C-12.03507812 20.13168457 -12.94515625 20.13055664 -13.8828125 20.12939453 C-16 20 -16 20 -17 19 C-18.07279693 9.14559387 -18.07279693 9.14559387 -15.953125 4.90625 C-11.42104536 -0.53224557 -6.73806993 -0.9493146 0 0 Z " fill="#9DEEFD" transform="translate(55,46)"/>
<path d="M0 0 C-0.1875 3.3125 -0.1875 3.3125 -1 7 C-3.67595213 9.37012903 -5.13784046 10.04459446 -8.71875 9.859375 C-12.79322535 10.03399537 -15.76972748 11.46101951 -19.3125 13.3125 C-19.94478516 13.62123047 -20.57707031 13.92996094 -21.22851562 14.24804688 C-25.14860422 16.15850577 -25.14860422 16.15850577 -27 20 C-27.804375 20.391875 -28.60875 20.78375 -29.4375 21.1875 C-32.77728437 23.5497865 -32.72907544 25.27254325 -33.47265625 29.125 C-34 31 -34 31 -36 33 C-38 34 -38 34 -40 34 C-40.78531573 31.17797111 -41.21488274 28.55351765 -41.3125 25.625 C-41.34988281 24.89539063 -41.38726562 24.16578125 -41.42578125 23.4140625 C-40.78937929 19.80583855 -39.32665974 17.81805028 -37 15 C-34.51548818 13.47216802 -32.25742629 12.24685609 -29.625 11.0625 C-28.19102295 10.38753248 -26.75743662 9.71173432 -25.32421875 9.03515625 C-24.60282715 8.70016113 -23.88143555 8.36516602 -23.13818359 8.02001953 C-21.08796139 7.04196194 -19.08409089 6.00628965 -17.08203125 4.93359375 C-16.4669873 4.6080249 -15.85194336 4.28245605 -15.21826172 3.94702148 C-13.53732983 3.0530902 -11.86033096 2.15177463 -10.18359375 1.25 C-6.58267253 -0.16385864 -3.83492008 -0.23212631 0 0 Z " fill="#4AACC2" transform="translate(52,12)"/>
<path d="M0 0 C-0.625 1.875 -0.625 1.875 -2 4 C-8.27314491 6.57946835 -14.25857312 6.33108355 -20.9375 6.3125 C-22.6690332 6.33666992 -22.6690332 6.33666992 -24.43554688 6.36132812 C-30.73363447 6.36494149 -35.44769207 6.06306362 -41 3 C-41 1.68 -41 0.36 -41 -1 C-30.18229945 -5.91713661 -10.2712699 -6.84751327 0 0 Z " fill="#000000" transform="translate(71,94)"/>
<path d="M0 0 C3.52055917 0.59084404 6.43361222 1.5155542 9.64453125 3.06640625 C10.48564453 3.46923828 11.32675781 3.87207031 12.19335938 4.28710938 C13.05767578 4.70798828 13.92199219 5.12886719 14.8125 5.5625 C15.69615234 5.98724609 16.57980469 6.41199219 17.49023438 6.84960938 C19.66264337 7.89471424 21.83239957 8.94496762 24 10 C23.01 10.495 23.01 10.495 22 11 C22.33 13.64 22.66 16.28 23 19 C14.11759114 16.4621689 6.17381793 12.22230349 -2 8 C-1.34 5.36 -0.68 2.72 0 0 Z " fill="#018CAB" transform="translate(52,12)"/>
<path d="M0 0 C3 2.0625 3 2.0625 5 5 C5.06641554 8.85210127 4.87229157 10.99848005 2.3125 13.9375 C-0.7864448 15.3613395 -2.62182812 15.55153827 -6 15 C-8.9375 12.9375 -8.9375 12.9375 -11 10 C-11 6.45638757 -10.65850044 4.13408409 -8.875 1.0625 C-5.76581435 -0.69937187 -3.49155423 -0.48159369 0 0 Z " fill="#9CEDFD" transform="translate(53,30)"/>
<path d="M0 0 C-0.07421875 1.76171875 -0.07421875 1.76171875 -1 4 C-3.2813297 5.47858497 -5.37863726 6.65549791 -7.8125 7.8125 C-8.44220703 8.13669922 -9.07191406 8.46089844 -9.72070312 8.79492188 C-12.44858858 10.13167162 -14.38551734 11.07546278 -17.44921875 10.69921875 C-17.96097656 10.46847656 -18.47273438 10.23773438 -19 10 C-18.92578125 8.23828125 -18.92578125 8.23828125 -18 6 C-15.7186703 4.52141503 -13.62136274 3.34450209 -11.1875 2.1875 C-10.55779297 1.86330078 -9.92808594 1.53910156 -9.27929688 1.20507812 C-3.55194277 -1.60150568 -3.55194277 -1.60150568 0 0 Z " fill="#EDF8FB" transform="translate(44,22)"/>
</svg>
