<?xml version="1.0" encoding="UTF-8"?>
<svg version="1.1" xmlns="http://www.w3.org/2000/svg" width="94" height="94">
<path d="M0 0 C3.63 0 7.26 0 11 0 C11 0.66 11 1.32 11 2 C11.84304687 2.34933594 12.68609375 2.69867188 13.5546875 3.05859375 C15.19824219 3.74115234 15.19824219 3.74115234 16.875 4.4375 C17.96554688 4.88996094 19.05609375 5.34242187 20.1796875 5.80859375 C22.79264465 6.91240529 24.88574025 7.91942962 27.19921875 9.55078125 C30.6372417 11.32973036 32.96649823 11.30404551 36.8125 11.1875 C37.97394531 11.16042969 39.13539062 11.13335937 40.33203125 11.10546875 C41.21246094 11.07066406 42.09289062 11.03585937 43 11 C43 11.66 43 12.32 43 13 C43.48895752 13.39034424 43.97791504 13.78068848 44.48168945 14.18286133 C46.83099183 16.99454449 46.33707214 19.4724415 46.29296875 23.07421875 C46.28872391 23.7580513 46.28447906 24.44188385 46.28010559 25.1464386 C46.26333353 27.32719561 46.22568657 29.50702309 46.1875 31.6875 C46.17245114 33.16730435 46.15876308 34.6471232 46.14648438 36.12695312 C46.11343569 39.75160336 46.06166446 43.37571094 46 47 C45.34 47 44.68 47 44 47 C43.54173828 47.98226562 43.54173828 47.98226562 43.07421875 48.984375 C36.41099489 62.27328342 22.85262794 77.8885465 9 84 C3.92031747 85.01593651 1.35451865 83.81832384 -2.8125 81.0625 C-4.21052052 80.04466406 -5.60675419 79.02436199 -7 78 C-7.66 77.67 -8.32 77.34 -9 77 C-10.17746175 75.56795192 -11.35371511 74.13423529 -12.48828125 72.66796875 C-14.05165373 70.85141103 -14.05165373 70.85141103 -16.421875 69.08203125 C-25.47011354 61.77489316 -32.39775039 50.52982713 -34 39 C-34.23057499 34.91812389 -34.23058051 30.83780324 -34.25 26.75 C-34.270625 25.64914063 -34.29125 24.54828125 -34.3125 23.4140625 C-34.31765625 22.36476563 -34.3228125 21.31546875 -34.328125 20.234375 C-34.3374707 19.27756836 -34.34681641 18.32076172 -34.35644531 17.33496094 C-34.23881836 16.56442383 -34.12119141 15.79388672 -34 15 C-31.18972612 13.12648408 -29.76131342 12.5794204 -26.5625 11.9375 C-19.11954294 10.41364585 -12.43134318 8.35379762 -5.625 4.875 C-4.03558594 4.06675781 -4.03558594 4.06675781 -2.4140625 3.2421875 C-1.61742187 2.83226562 -0.82078125 2.42234375 0 2 C0 1.34 0 0.68 0 0 Z " fill="#2A6FBA" transform="translate(41,4)"/>
<path d="M0 0 C3.63 0 7.26 0 11 0 C11 0.66 11 1.32 11 2 C11.84304687 2.34933594 12.68609375 2.69867188 13.5546875 3.05859375 C15.19824219 3.74115234 15.19824219 3.74115234 16.875 4.4375 C17.96554688 4.88996094 19.05609375 5.34242187 20.1796875 5.80859375 C22.79264465 6.91240529 24.88574025 7.91942962 27.19921875 9.55078125 C30.6372417 11.32973036 32.96649823 11.30404551 36.8125 11.1875 C37.97394531 11.16042969 39.13539062 11.13335937 40.33203125 11.10546875 C41.21246094 11.07066406 42.09289062 11.03585937 43 11 C43 11.66 43 12.32 43 13 C43.99 13.495 43.99 13.495 45 14 C44.67 14.66 44.34 15.32 44 16 C32.00827662 15.3108205 23.38854915 11.82834755 13 6 C12.34 5.67 11.68 5.34 11 5 C10.9175 5.70125 10.835 6.4025 10.75 7.125 C9.7744274 10.86469497 8.54033259 13.06884701 6 16 C3.99071666 16.77344798 2.0734833 17.18550304 -0.04296875 17.5703125 C-2.72177297 18.15847311 -4.70651998 19.5347211 -7 21 C-8.32581241 21.36209162 -9.66058066 21.69203132 -11 22 C-11.7115625 22.22300781 -12.423125 22.44601563 -13.15625 22.67578125 C-20.63842531 24.70843888 -25.97125443 22.92260555 -33 20 C-33.33 18.35 -33.66 16.7 -34 15 C-31.18972612 13.12648408 -29.76131342 12.5794204 -26.5625 11.9375 C-19.11954294 10.41364585 -12.43134318 8.35379762 -5.625 4.875 C-4.03558594 4.06675781 -4.03558594 4.06675781 -2.4140625 3.2421875 C-1.61742187 2.83226562 -0.82078125 2.42234375 0 2 C0 1.34 0 0.68 0 0 Z " fill="#5FDCFE" transform="translate(41,4)"/>
<path d="M0 0 C3.56531075 1.99657402 5.79707285 4.0631475 7 8 C7 10.64 7 13.28 7 16 C-1.91 16 -10.82 16 -20 16 C-18.86018237 5.74164134 -18.86018237 5.74164134 -14 1 C-9.82437724 -1.08781138 -4.54816058 -0.44327867 0 0 Z " fill="#2CAAE6" transform="translate(53,46)"/>
<path d="M0 0 C4.89934795 1.33475826 9.47489412 3.28012905 13.63671875 6.21484375 C17.0747417 7.99379286 19.40399823 7.96810801 23.25 7.8515625 C24.41144531 7.82449219 25.57289062 7.79742187 26.76953125 7.76953125 C27.64996094 7.73472656 28.53039062 7.69992187 29.4375 7.6640625 C29.4375 8.3240625 29.4375 8.9840625 29.4375 9.6640625 C30.4275 10.1590625 30.4275 10.1590625 31.4375 10.6640625 C31.1075 11.3240625 30.7775 11.9840625 30.4375 12.6640625 C18.44577662 11.974883 9.82604915 8.49241005 -0.5625 2.6640625 C-1.2225 2.3340625 -1.8825 2.0040625 -2.5625 1.6640625 C-2.645 2.3653125 -2.7275 3.0665625 -2.8125 3.7890625 C-3.7880726 7.52875747 -5.02216741 9.73290951 -7.5625 12.6640625 C-9.57178334 13.43751048 -11.4890167 13.84956554 -13.60546875 14.234375 C-16.28427297 14.82253561 -18.26901998 16.1987836 -20.5625 17.6640625 C-21.88831241 18.02615412 -23.22308066 18.35609382 -24.5625 18.6640625 C-25.2740625 18.88707031 -25.985625 19.11007813 -26.71875 19.33984375 C-34.03756756 21.32812252 -39.7740657 19.92966846 -46.5625 16.6640625 C-46.8925 16.0040625 -47.2225 15.3440625 -47.5625 14.6640625 C-46.52222656 14.90382813 -46.52222656 14.90382813 -45.4609375 15.1484375 C-36.50525203 16.74163222 -28.31715893 16.46974877 -20.61328125 11.375 C-16.97645297 8.78419281 -14.07754741 6.12542107 -11.1875 2.7265625 C-7.6141557 -0.96915661 -4.91170615 -0.88350812 0 0 Z " fill="#57D8FD" transform="translate(54.5625,7.3359375)"/>
<path d="M0 0 C0.33 0 0.66 0 1 0 C1 9.57 1 19.14 1 29 C0.34 29 -0.32 29 -1 29 C-1.30550781 29.65484375 -1.61101562 30.3096875 -1.92578125 30.984375 C-8.58900511 44.27328342 -22.14737206 59.8885465 -36 66 C-41.07968253 67.01593651 -43.64548135 65.81832384 -47.8125 63.0625 C-49.21052052 62.04466406 -50.60675419 61.02436199 -52 60 C-52.66 59.67 -53.32 59.34 -54 59 C-55.17746175 57.56795192 -56.35371511 56.13423529 -57.48828125 54.66796875 C-59.04765551 52.85327577 -59.04765551 52.85327577 -61.41015625 51.109375 C-64.0591742 48.95180382 -66.01764772 46.74420908 -68.125 44.0625 C-68.78757812 43.22847656 -69.45015625 42.39445312 -70.1328125 41.53515625 C-71.93921274 39.08253333 -73.59874561 36.70634427 -75 34 C-74.67 33.34 -74.34 32.68 -74 32 C-73.5153125 32.71285156 -73.030625 33.42570312 -72.53125 34.16015625 C-68.71096668 39.61875337 -64.97324397 44.2934177 -59.80859375 48.51171875 C-58 50 -58 50 -55.375 52.6875 C-53.02914245 55.11275676 -53.02914245 55.11275676 -50 57 C-47 59 -47 59 -44.5625 61.8125 C-42.14669116 64.309655 -42.14669116 64.309655 -38.75 64.25 C-29.0459959 61.01533197 -19.94690864 51.81840236 -15 43 C-13.83525009 41.37923951 -12.64529454 39.77644282 -11.4375 38.1875 C-10.83808594 37.39730469 -10.23867187 36.60710938 -9.62109375 35.79296875 C-9.08613281 35.20128906 -8.55117187 34.60960937 -8 34 C-7.34 34 -6.68 34 -6 34 C-3.27926843 27.97552294 -1.15253085 20.95485605 -2.5625 14.375 C-3.10790044 10.1676252 -2.95347835 6.14555805 -2 2 C-1.34 1.34 -0.68 0.68 0 0 Z " fill="#2E487B" transform="translate(86,22)"/>
<path d="M0 0 C2.1640625 0.3046875 2.1640625 0.3046875 4.7265625 1.2421875 C6.76269788 4.16359913 6.60347753 6.65566656 6.59765625 10.1484375 C6.0609754 12.81733684 5.35361993 13.71228209 3.1640625 15.3046875 C0.07223151 15.69730096 -1.88295128 15.93576923 -4.8359375 15.3046875 C-7.72933432 12.78223899 -8.65569516 10.89347914 -9.7734375 7.2421875 C-9.8359375 4.3046875 -9.8359375 4.3046875 -8.9609375 1.9296875 C-5.99817092 -0.33595753 -3.65279262 -0.2022719 0 0 Z " fill="#26BBEE" transform="translate(47.8359375,24.6953125)"/>
<path d="M0 0 C1 3 1 3 -0.4375 6.0625 C-3.38606602 9.44256349 -4.82345709 9.80312856 -9.04296875 10.5703125 C-11.72177297 11.15847311 -13.70651998 12.5347211 -16 14 C-17.32581241 14.36209162 -18.66058066 14.69203132 -20 15 C-20.7115625 15.22300781 -21.423125 15.44601563 -22.15625 15.67578125 C-29.47506756 17.66406002 -35.2115657 16.26560596 -42 13 C-42.33 12.34 -42.66 11.68 -43 11 C-41.95972656 11.23976563 -41.95972656 11.23976563 -40.8984375 11.484375 C-32.78762518 12.92726884 -25.32374833 12.80834913 -18 9 C-16.88625 8.71125 -15.7725 8.4225 -14.625 8.125 C-9.27396343 6.46433348 -3.99604854 3.99604854 0 0 Z " fill="#51C4F5" transform="translate(50,11)"/>
<path d="M0 0 C0.99 0.33 1.98 0.66 3 1 C3 3.1875 3 3.1875 2 6 C-0.48579535 7.99212104 -3.21471419 9.46782955 -6 11 C-6.928125 11.598125 -7.85625 12.19625 -8.8125 12.8125 C-11 14 -11 14 -14 14 C-14.59865471 8.01345291 -14.59865471 8.01345291 -12.95703125 5.234375 C-8.75626866 0.15896683 -6.44926088 -0.22628986 0 0 Z " fill="#36C4F3" transform="translate(48,46)"/>
<path d="M0 0 C3.63 0 7.26 0 11 0 C11 0.66 11 1.32 11 2 C11.99 2.66 12.98 3.32 14 4 C13.20335937 3.94199219 12.40671875 3.88398437 11.5859375 3.82421875 C4.81988045 3.40211212 4.81988045 3.40211212 -1.125 6.1875 C-1.79789063 6.86619141 -1.79789063 6.86619141 -2.484375 7.55859375 C-9.34718444 14.08533778 -17.51007019 14.64464183 -26.4609375 14.859375 C-29.21429013 14.96877974 -31.40120545 15.1737166 -34 16 C-31.70191367 13.31278085 -30.01711782 12.51582287 -26.5625 11.875 C-25.80066406 11.72804688 -25.03882813 11.58109375 -24.25390625 11.4296875 C-23.51011719 11.28789062 -22.76632813 11.14609375 -22 11 C-16.18017335 9.69083654 -10.93125286 7.58708479 -5.625 4.875 C-4.03558594 4.06675781 -4.03558594 4.06675781 -2.4140625 3.2421875 C-1.61742187 2.83226562 -0.82078125 2.42234375 0 2 C0 1.34 0 0.68 0 0 Z " fill="#A4F8FE" transform="translate(41,4)"/>
<path d="M0 0 C1.5 1.5 1.5 1.5 3 4 C3 6.64 3 9.28 3 12 C-2.94 12 -8.88 12 -15 12 C-13.61477696 9.22955392 -11.66867685 9.03350137 -8.91796875 7.921875 C-5.2968662 6.18138579 -1.8185785 3.637157 0 0 Z " fill="#289ADF" transform="translate(57,50)"/>
<path d="M0 0 C9.24 0 18.48 0 28 0 C23.88624988 4.11375012 22.4126374 4.92534293 17 5 C4.8817734 4.8817734 4.8817734 4.8817734 0 0 Z " fill="#1C3A74" transform="translate(33,63)"/>
<path d="M0 0 C2.15625 0.3359375 2.15625 0.3359375 5.15625 2.3359375 C4.890625 4.2265625 4.890625 4.2265625 4.15625 6.3359375 C0.27046304 8.76909382 -4.29603087 9.76228617 -8.84375 9.3359375 C-9.72270423 6.45936002 -10.04664616 4.87216308 -8.96875 2.0234375 C-6.01332821 -0.3235151 -3.6803702 -0.0613395 0 0 Z " fill="#42D4FA" transform="translate(47.84375,24.6640625)"/>
<path d="M0 0 C0.66 0.33 1.32 0.66 2 1 C-2.01829831 5.53678842 -6.4936444 8.45777295 -12 11 C-12.66 11 -13.32 11 -14 11 C-14 11.66 -14 12.32 -14 13 C-21.61399923 15.19386419 -28.16296501 14.89635331 -36 14 C-32.45513613 10.57239626 -29.22385443 10.72010178 -24.5625 10.75 C-15.50644695 10.52346878 -7.90955336 7.5684686 -1.14453125 1.2734375 C-0.76683594 0.85320313 -0.38914063 0.43296875 0 0 Z " fill="#74EEFE" transform="translate(43,7)"/>
<path d="M0 0 C1.79240663 0.11389875 3.58394835 0.24147687 5.375 0.375 C6.87160156 0.47941406 6.87160156 0.47941406 8.3984375 0.5859375 C11 1 11 1 13 3 C11.9171875 3.37125 11.9171875 3.37125 10.8125 3.75 C7.89861722 4.90102871 7.89861722 4.90102871 5.4375 7.0625 C3.08130077 8.93537631 1.96363085 9.81477307 -1 10 C-3.75 9.0625 -3.75 9.0625 -6 8 C-5.67 7.34 -5.34 6.68 -5 6 C-4.01 6.33 -3.02 6.66 -2 7 C-2.66 5.68 -3.32 4.36 -4 3 C-2.35 3 -0.7 3 1 3 C0.67 2.01 0.34 1.02 0 0 Z " fill="#3AA4EA" transform="translate(74,18)"/>
<path d="M0 0 C0.886875 0.309375 1.77375 0.61875 2.6875 0.9375 C5.85987233 2.04544914 5.85987233 2.04544914 8.6875 2.4375 C11 3 11 3 12.375 4.5 C16.39808723 8.21361898 23.80004602 7.09122726 29 7 C29 7.66 29 8.32 29 9 C29.66 9.33 30.32 9.66 31 10 C30.67 10.66 30.34 11.32 30 12 C19.10304369 11.25216966 10.20734943 9.13367937 1 3 C0.67 2.01 0.34 1.02 0 0 Z " fill="#71CDFA" transform="translate(55,8)"/>
<path d="M0 0 C0.66 0.33 1.32 0.66 2 1 C-0.93356274 4.36816462 -2.66867754 5.25675532 -7 6 C-8.11568359 6.33451172 -8.11568359 6.33451172 -9.25390625 6.67578125 C-16.52582151 8.68140255 -22.25426818 7.24506374 -29 4 C-29.33 3.34 -29.66 2.68 -30 2 C-26.9783962 2.56655071 -24.02779824 3.25999126 -21.0625 4.0625 C-14.59684523 5.64567902 -10.64247815 5.17012111 -4.83203125 1.97265625 C-3 1 -3 1 0 0 Z " fill="#47BEF1" transform="translate(37,20)"/>
<path d="M0 0 C0.33 0 0.66 0 1 0 C1.0270817 2.72923388 1.04687847 5.45819637 1.0625 8.1875 C1.07087891 8.95642578 1.07925781 9.72535156 1.08789062 10.51757812 C1.10491934 14.48526789 0.98604115 18.12571234 0 22 C-0.99 21.34 -1.98 20.68 -3 20 C-2.814375 19.443125 -2.62875 18.88625 -2.4375 18.3125 C-1.84307532 16.01492429 -1.84307532 16.01492429 -2.5 13.8125 C-3.20777411 9.83127062 -2.89113169 5.94422633 -2 2 C-1.34 1.34 -0.68 0.68 0 0 Z " fill="#2C56A0" transform="translate(86,22)"/>
<path d="M0 0 C0 1.32 0 2.64 0 4 C-3.96 4.99 -7.92 5.98 -12 7 C-11 3 -11 3 -9.375 1.25 C-6.16865877 -0.43754802 -3.56651486 -0.20576047 0 0 Z " fill="#52D5FC" transform="translate(48,46)"/>
<path d="M0 0 C1.65 0 3.3 0 5 0 C5.66 1.65 6.32 3.3 7 5 C5.1875 6.5625 5.1875 6.5625 3 8 C2.01 7.67 1.02 7.34 0 7 C0.99 5.02 1.98 3.04 3 1 C2.01 0.67 1.02 0.34 0 0 Z M-2 8 C-1.34 8.33 -0.68 8.66 0 9 C-1.45264038 9.8638129 -2.9123163 10.71580454 -4.375 11.5625 C-5.59316406 12.27599609 -5.59316406 12.27599609 -6.8359375 13.00390625 C-7.55007812 13.33261719 -8.26421875 13.66132812 -9 14 C-9.66 13.67 -10.32 13.34 -11 13 C-9.54735962 12.1361871 -8.0876837 11.28419546 -6.625 10.4375 C-5.40683594 9.72400391 -5.40683594 9.72400391 -4.1640625 8.99609375 C-3.44992188 8.66738281 -2.73578125 8.33867188 -2 8 Z " fill="#32B6ED" transform="translate(48,46)"/>
<path d="M0 0 C-6.64976066 4.43317377 -15.40311715 3.26614714 -23 2 C-23.33 1.34 -23.66 0.68 -24 0 C-20.56296699 -0.19682269 -17.12536573 -0.38085152 -13.6875 -0.5625 C-12.71103516 -0.61857422 -11.73457031 -0.67464844 -10.72851562 -0.73242188 C-9.32182617 -0.80493164 -9.32182617 -0.80493164 -7.88671875 -0.87890625 C-7.02264404 -0.9260376 -6.15856934 -0.97316895 -5.26831055 -1.02172852 C-3 -1 -3 -1 0 0 Z " fill="#21478A" transform="translate(60,65)"/>
<path d="M0 0 C0.66 0.33 1.32 0.66 2 1 C-0.3125 2.5625 -0.3125 2.5625 -3 4 C-3.99 3.67 -4.98 3.34 -6 3 C-4.03533587 1.93224776 -2.03144641 0.93446535 0 0 Z M-6 5 C-8.49031084 7.07525903 -10.29089974 8.00649557 -13.55859375 7.9765625 C-16.05338223 7.71469818 -18.52365349 7.39910051 -21 7 C-17.88529393 4.92352929 -16.55611254 4.6375889 -12.9375 4.3125 C-11.62072266 4.18294922 -11.62072266 4.18294922 -10.27734375 4.05078125 C-8 4 -8 4 -6 5 Z " fill="#57CCF9" transform="translate(37,18)"/>
<path d="M0 0 C0.33 0 0.66 0 1 0 C1 2.64 1 5.28 1 8 C-2.63 8 -6.26 8 -10 8 C-7 5 -7 5 -4.4375 4 C-1.68761678 3.13727591 -1.68761678 3.13727591 0 0 Z " fill="#2587D5" transform="translate(59,54)"/>
<path d="M0 0 C-0.53625 0.226875 -1.0725 0.45375 -1.625 0.6875 C-4.23165018 2.02432422 -4.23165018 2.02432422 -7 4.5625 C-11.11627907 7.90697674 -11.11627907 7.90697674 -14 8 C-16.75 7.0625 -16.75 7.0625 -19 6 C-18.67 5.34 -18.34 4.68 -18 4 C-16.4221875 3.7834375 -16.4221875 3.7834375 -14.8125 3.5625 C-10.99841344 3.20224886 -10.99841344 3.20224886 -7.875 1.4375 C-4.91218426 -0.04390787 -3.25199641 -0.28694086 0 0 Z " fill="#418DD6" transform="translate(87,20)"/>
<path d="M0 0 C0.99 0.495 0.99 0.495 2 1 C2 4.96 2 8.92 2 13 C2.33 13 2.66 13 3 13 C3 15.31 3 17.62 3 20 C2.01 20 1.02 20 0 20 C0 13.4 0 6.8 0 0 Z " fill="#308ACE" transform="translate(7,23)"/>
<path d="M0 0 C1.670625 0.061875 1.670625 0.061875 3.375 0.125 C3.705 0.785 4.035 1.445 4.375 2.125 C3.3025 2.57875 2.23 3.0325 1.125 3.5 C-1.50562317 4.62588537 -4.08500396 5.80420206 -6.625 7.125 C-5.84042384 2.15601765 -5.49387562 0.18944399 0 0 Z " fill="#7CEDFE" transform="translate(46.625,24.875)"/>
<path d="M0 0 C-2.5 1.5 -2.5 1.5 -5 3 C-5.886875 3.53625 -6.77375 4.0725 -7.6875 4.625 C-9.09806684 5.46371542 -10.53217375 6.26608688 -12 7 C-11.67 4.69 -11.34 2.38 -11 0 C-10.34 0.33 -9.68 0.66 -9 1 C-7.845 0.67 -6.69 0.34 -5.5 0 C-2 -1 -2 -1 0 0 Z " fill="#46CFF8" transform="translate(46,51)"/>
<path d="M0 0 C0.66 0 1.32 0 2 0 C2 0.66 2 1.32 2 2 C2.99 2 3.98 2 5 2 C5.33 4.31 5.66 6.62 6 9 C4.125 8.4375 4.125 8.4375 2 7 C0.75 3.375 0.75 3.375 0 0 Z " fill="#295C9D" transform="translate(8,47)"/>
<path d="M0 0 C0.66 0 1.32 0 2 0 C0.125 3.875 0.125 3.875 -1 5 C-3.67058851 5.14115161 -6.32432238 5.04247107 -9 5 C-9.33 4.34 -9.66 3.68 -10 3 C-9.04287109 2.80083984 -9.04287109 2.80083984 -8.06640625 2.59765625 C-7.24011719 2.42105469 -6.41382813 2.24445312 -5.5625 2.0625 C-4.73878906 1.88847656 -3.91507813 1.71445312 -3.06640625 1.53515625 C-1.02338796 1.19247006 -1.02338796 1.19247006 0 0 Z " fill="#1D97DC" transform="translate(52,35)"/>
<path d="M0 0 C6.625 -0.25 6.625 -0.25 10 2 C7.47946405 3.26026798 6.1457902 2.91874445 3.375 2.5625 C2.14910156 2.40974609 2.14910156 2.40974609 0.8984375 2.25390625 C0.27195312 2.17011719 -0.35453125 2.08632813 -1 2 C-0.67 1.34 -0.34 0.68 0 0 Z " fill="#67EAFE" transform="translate(12,19)"/>
<path d="M0 0 C6.15234375 0.5859375 6.15234375 0.5859375 8 1 C8.33 1.66 8.66 2.32 9 3 C7.68 2.67 6.36 2.34 5 2 C4.67 3.32 4.34 4.64 4 6 C2 4.6875 2 4.6875 0 3 C0 2.01 0 1.02 0 0 Z " fill="#46D9FE" transform="translate(47,7)"/>
<path d="M0 0 C1.32 0 2.64 0 4 0 C3 3 3 3 -0.0625 4.6875 C-1.031875 5.120625 -2.00125 5.55375 -3 6 C-2.42655063 3.13275314 -2.1385485 2.1385485 0 0 Z " fill="#6CE0FD" transform="translate(39,47)"/>
<path d="M0 0 C0.33 0 0.66 0 1 0 C1 7.26 1 14.52 1 22 C0.67 22 0.34 22 0 22 C0 14.74 0 7.48 0 0 Z " fill="#3091D5" transform="translate(5,20)"/>
<path d="M0 0 C1.32 0.33 2.64 0.66 4 1 C4 1.66 4 2.32 4 3 C6.97 3.495 6.97 3.495 10 4 C6.52176885 5.15941038 4.54104422 4.70820884 1 4 C0.67 2.68 0.34 1.36 0 0 Z " fill="#2556AE" transform="translate(43,41)"/>
<path d="M0 0 C0.33 0 0.66 0 1 0 C1 5.94 1 11.88 1 18 C0.67 18 0.34 18 0 18 C0 12.06 0 6.12 0 0 Z " fill="#2F5EA2" transform="translate(88,20)"/>
<path d="M0 0 C1.32 0.33 2.64 0.66 4 1 C1.69 2.65 -0.62 4.3 -3 6 C-3.66 5.67 -4.32 5.34 -5 5 C-2.75 2.4375 -2.75 2.4375 0 0 Z " fill="#3774C3" transform="translate(83,21)"/>
<path d="M0 0 C2.62187494 1.04874998 3.79371361 1.64931313 5.25 4.125 C5.4975 4.74375 5.745 5.3625 6 6 C3.13275314 5.42655063 2.1385485 5.1385485 0 3 C0 2.01 0 1.02 0 0 Z " fill="#23447D" transform="translate(28,73)"/>
<path d="M0 0 C2.31 0 4.62 0 7 0 C7 0.33 7 0.66 7 1 C4.69 1 2.38 1 0 1 C0 0.67 0 0.34 0 0 Z " fill="#124388" transform="translate(43,89)"/>
<path d="M0 0 C0.33 0 0.66 0 1 0 C1 2.31 1 4.62 1 7 C0.67 7 0.34 7 0 7 C0 4.69 0 2.38 0 0 Z " fill="#254296" transform="translate(87,40)"/>
<path d="M0 0 C2.31 0 4.62 0 7 0 C7 0.33 7 0.66 7 1 C4.69 1 2.38 1 0 1 C0 0.67 0 0.34 0 0 Z " fill="#7BFCFE" transform="translate(10,15)"/>
<path d="M0 0 C0.99 0.495 0.99 0.495 2 1 C1.67 1.66 1.34 2.32 1 3 C0.67 2.01 0.34 1.02 0 0 Z " fill="#233564" transform="translate(18,67)"/>
<path d="M0 0 C1 4 1 4 1 4 Z " fill="#2C66B2" transform="translate(6,44)"/>
<path d="M0 0 C4 1 4 1 4 1 Z " fill="#67B9FD" transform="translate(71,14)"/>
<path d="" fill="#2A5698" transform="translate(0,0)"/>
<path d="M0 0 C3 1 3 1 3 1 Z " fill="#6EDFFF" transform="translate(52,5)"/>
<path d="M0 0 C2 1 2 1 2 1 Z " fill="#164C9A" transform="translate(50,88)"/>
<path d="M0 0 C2 1 2 1 2 1 Z " fill="#204080" transform="translate(52,87)"/>
<path d="M0 0 C2 1 2 1 2 1 Z " fill="#243B69" transform="translate(38,86)"/>
<path d="M0 0 C2 1 2 1 2 1 Z " fill="#284F89" transform="translate(56,84)"/>
<path d="M0 0 C2 1 2 1 2 1 Z " fill="#304576" transform="translate(61,80)"/>
<path d="M0 0 C2 1 2 1 2 1 Z " fill="#184B6E" transform="translate(26,76)"/>
<path d="" fill="#2B4470" transform="translate(0,0)"/>
<path d="" fill="#22298D" transform="translate(0,0)"/>
<path d="" fill="#14477D" transform="translate(0,0)"/>
<path d="" fill="#30528B" transform="translate(0,0)"/>
<path d="" fill="#254285" transform="translate(0,0)"/>
<path d="" fill="#1E3053" transform="translate(0,0)"/>
<path d="" fill="#3A5B92" transform="translate(0,0)"/>
<path d="" fill="#314379" transform="translate(0,0)"/>
<path d="M0 0 C2 1 2 1 2 1 Z " fill="#DAFEFE" transform="translate(8,16)"/>
<path d="M0 0 C2 1 2 1 2 1 Z " fill="#89D8FB" transform="translate(69,13)"/>
<path d="M0 0 C2 1 2 1 2 1 Z " fill="#BDFEFE" transform="translate(23,13)"/>
<path d="M0 0 C2 1 2 1 2 1 Z " fill="#80D2FC" transform="translate(67,12)"/>
<path d="M0 0 C2 1 2 1 2 1 Z " fill="#C1FDFE" transform="translate(25,12)"/>
<path d="M0 0 C2 1 2 1 2 1 Z " fill="#C8FDFF" transform="translate(29,10)"/>
<path d="M0 0 C2 1 2 1 2 1 Z " fill="#8BE0FD" transform="translate(61,9)"/>
<path d="M0 0 C2 1 2 1 2 1 Z " fill="#C2FEFF" transform="translate(31,9)"/>
<path d="M0 0 C2 1 2 1 2 1 Z " fill="#90E0FE" transform="translate(59,8)"/>
<path d="M0 0 C2 1 2 1 2 1 Z " fill="#BAFEFE" transform="translate(33,8)"/>
<path d="M0 0 C2 1 2 1 2 1 Z " fill="#5DE0FE" transform="translate(57,7)"/>
<path d="M0 0 C2 1 2 1 2 1 Z " fill="#82EBFE" transform="translate(55,6)"/>
<path d="M0 0 C2 1 2 1 2 1 Z " fill="#9CFFFF" transform="translate(37,6)"/>
<path d="M0 0 C2 1 2 1 2 1 Z " fill="#BEFDFE" transform="translate(39,5)"/>
<path d="" fill="#1C387C" transform="translate(0,0)"/>
<path d="" fill="#1F3197" transform="translate(0,0)"/>
<path d="" fill="#254E7F" transform="translate(0,0)"/>
<path d="" fill="#283977" transform="translate(0,0)"/>
<path d="" fill="#3B4F79" transform="translate(0,0)"/>
<path d="" fill="#2B3D6A" transform="translate(0,0)"/>
<path d="" fill="#34497A" transform="translate(0,0)"/>
<path d="" fill="#1B3B84" transform="translate(0,0)"/>
<path d="" fill="#24436B" transform="translate(0,0)"/>
<path d="" fill="#1F4979" transform="translate(0,0)"/>
<path d="" fill="#334776" transform="translate(0,0)"/>
<path d="" fill="#24397C" transform="translate(0,0)"/>
<path d="" fill="#30438D" transform="translate(0,0)"/>
<path d="" fill="#153E6A" transform="translate(0,0)"/>
<path d="" fill="#294069" transform="translate(0,0)"/>
<path d="" fill="#264185" transform="translate(0,0)"/>
<path d="" fill="#263C74" transform="translate(0,0)"/>
<path d="" fill="#00377B" transform="translate(0,0)"/>
<path d="" fill="#314670" transform="translate(0,0)"/>
<path d="" fill="#2A4171" transform="translate(0,0)"/>
<path d="" fill="#2C5B79" transform="translate(0,0)"/>
<path d="" fill="#0E377F" transform="translate(0,0)"/>
<path d="" fill="#28506E" transform="translate(0,0)"/>
<path d="" fill="#1D3681" transform="translate(0,0)"/>
<path d="" fill="#264E76" transform="translate(0,0)"/>
<path d="" fill="#1A347E" transform="translate(0,0)"/>
<path d="" fill="#254969" transform="translate(0,0)"/>
<path d="" fill="#193257" transform="translate(0,0)"/>
<path d="" fill="#265271" transform="translate(0,0)"/>
<path d="" fill="#203861" transform="translate(0,0)"/>
<path d="" fill="#273A78" transform="translate(0,0)"/>
<path d="" fill="#283C65" transform="translate(0,0)"/>
<path d="" fill="#22456A" transform="translate(0,0)"/>
<path d="" fill="#253874" transform="translate(0,0)"/>
<path d="" fill="#314464" transform="translate(0,0)"/>
<path d="" fill="#234585" transform="translate(0,0)"/>
<path d="" fill="#1C527A" transform="translate(0,0)"/>
<path d="" fill="#294267" transform="translate(0,0)"/>
<path d="" fill="#174A73" transform="translate(0,0)"/>
<path d="" fill="#244669" transform="translate(0,0)"/>
<path d="" fill="#064D8F" transform="translate(0,0)"/>
<path d="" fill="#203E6C" transform="translate(0,0)"/>
<path d="" fill="#21496C" transform="translate(0,0)"/>
<path d="" fill="#24547A" transform="translate(0,0)"/>
<path d="" fill="#174B71" transform="translate(0,0)"/>
<path d="" fill="#324A74" transform="translate(0,0)"/>
<path d="" fill="#3EA5DD" transform="translate(0,0)"/>
<path d="" fill="#B6FFFF" transform="translate(0,0)"/>
<path d="" fill="#CBFCFF" transform="translate(0,0)"/>
<path d="" fill="#55ADEA" transform="translate(0,0)"/>
<path d="" fill="#D7FEFE" transform="translate(0,0)"/>
<path d="" fill="#77CAFC" transform="translate(0,0)"/>
<path d="" fill="#C4FEFE" transform="translate(0,0)"/>
</svg>
