<?xml version="1.0" encoding="UTF-8"?>
<svg version="1.1" xmlns="http://www.w3.org/2000/svg" width="100" height="100">
<path d="M0 0 C2.54904418 1.98437038 3.83332137 3.17557423 4.48101807 6.37921143 C4.4676944 7.6982547 4.4676944 7.6982547 4.45410156 9.04394531 C4.45379944 10.04468079 4.45349731 11.04541626 4.45318604 12.07647705 C4.43254089 13.14952087 4.41189575 14.2225647 4.390625 15.328125 C4.38496521 16.43226746 4.37930542 17.53640991 4.37347412 18.67401123 C4.35108768 22.19978226 4.30088496 25.72453624 4.25 29.25 C4.22993803 31.64061032 4.21168674 34.03123658 4.1953125 36.421875 C4.15121543 42.28159687 4.08427998 48.14072578 4 54 C5.11503906 54.13019531 6.23007813 54.26039062 7.37890625 54.39453125 C11 55 11 55 12.9375 56.6875 C14.33817538 59.73602877 14.4842732 61.67926952 14 65 C11.8634206 67.7750396 10.67236982 68.87264304 7.1953125 69.53125 C-1.05414021 69.4472861 -5.17822503 67.88927381 -11 62 C-11.76183594 62.72316406 -11.76183594 62.72316406 -12.5390625 63.4609375 C-18.37760979 68.81840599 -22.77683321 71.52292126 -30.99609375 71.2421875 C-38.00240695 70.3954206 -43.41880544 66.12978298 -48 61 C-54.80059227 50.61020625 -56.34719239 39.0341137 -54.53515625 26.8828125 C-52.38085918 16.86341901 -47.60174938 8.78021883 -39 3 C-33.67439377 0.50716304 -28.2307327 -0.03255707 -22.62890625 1.7578125 C-18.34624173 3.54401412 -14.99966433 5.34823473 -12 9 C-11.731875 7.88625 -11.46375 6.7725 -11.1875 5.625 C-9.19720742 -0.45062999 -5.90039198 -0.62109389 0 0 Z M-33 27 C-35.29076026 31.12336846 -35.71142487 35.37573833 -35 40 C-33.09995837 45.40493408 -33.09995837 45.40493408 -29 49 C-26.08461971 49.50042146 -26.08461971 49.50042146 -23 49 C-19.00007168 45.6667264 -17.96124401 41.53099552 -17.1171875 36.5703125 C-16.90264856 31.86475837 -18.35990647 27.94481036 -21.4296875 24.3046875 C-23.04416942 22.73380343 -23.04416942 22.73380343 -25.9375 22.5625 C-29.71581496 23.10225928 -30.72119946 23.98872785 -33 27 Z " fill="#67E5FC" transform="translate(70,14)"/>
<path d="M0 0 C0.66 0.99 1.32 1.98 2 3 C-1.44527146 6.16245067 -4.29145707 6.49885987 -8.875 6.9375 C-14.44934618 7.6379111 -17.85887817 8.1946448 -22 12 C-22.556875 12.7425 -23.11375 13.485 -23.6875 14.25 C-24.120625 14.8275 -24.55375 15.405 -25 16 C-25.99 16 -26.98 16 -28 16 C-28.06469482 16.55461914 -28.12938965 17.10923828 -28.19604492 17.68066406 C-28.50379819 20.20714672 -28.84525045 22.72796859 -29.1875 25.25 C-29.28869141 26.12269531 -29.38988281 26.99539062 -29.49414062 27.89453125 C-30.10258274 32.20295917 -30.41384743 34.38532195 -33.48828125 37.609375 C-36 39 -36 39 -38 39 C-41.28898962 32.42202076 -38.92703091 22.57326469 -37.0390625 15.82421875 C-33.95948517 7.45378864 -28.19308876 0.43080751 -20.0625 -3.375 C-12.4421557 -4.93017231 -6.64541417 -4.12236273 0 0 Z " fill="#94ECFD" transform="translate(54,19)"/>
<path d="M0 0 C2.37609076 2.5080958 4.08475407 5.12713111 6 8 C7.32 8 8.64 8 10 8 C10 6.02 10 4.04 10 2 C16.40703902 2.48355011 16.40703902 2.48355011 18.9375 4.6875 C20.33817538 7.73602877 20.4842732 9.67926952 20 13 C17.8634206 15.7750396 16.67236982 16.87264304 13.1953125 17.53125 C4.94585979 17.4472861 0.82177497 15.88927381 -5 10 C-5.50789063 10.48210937 -6.01578125 10.96421875 -6.5390625 11.4609375 C-11.82500157 16.31133103 -15.79489248 19.0252098 -23.125 19.1875 C-25.9954596 19.04860679 -28.30478567 18.89840478 -31 18 C-29.92598892 15.08482708 -29.22189824 13.22189824 -27 11 C-25.08203125 10.578125 -25.08203125 10.578125 -22.8125 10.25 C-16.82736118 9.04526191 -13.54391769 5.63884 -9.4296875 1.37109375 C-6.30412746 -1.62636957 -4.02638957 -1.12738908 0 0 Z " fill="#60D4EA" transform="translate(64,66)"/>
<path d="M0 0 C0.95245605 0.00080566 1.90491211 0.00161133 2.88623047 0.00244141 C23.40661076 0.17871552 23.40661076 0.17871552 30.3125 4.1875 C30.3125 5.1775 30.3125 6.1675 30.3125 7.1875 C21.0359298 10.18192229 12.32653859 10.65636321 2.68554688 10.57861328 C0.3158209 10.56252255 -2.05220031 10.57854597 -4.421875 10.59765625 C-13.25298478 10.60803114 -21.20011763 9.9271771 -29.6875 7.1875 C-29.3575 5.8675 -29.0275 4.5475 -28.6875 3.1875 C-19.19569724 0.55088812 -9.82289074 -0.00873456 0 0 Z " fill="#000000" transform="translate(49.6875,89.8125)"/>
<path d="M0 0 C0 1.32 0 2.64 0 4 C-1.216875 4.226875 -2.43375 4.45375 -3.6875 4.6875 C-7.99977192 5.74465308 -10.0208596 7.689844 -13 11 C-15.3125 12.3125 -15.3125 12.3125 -17 13 C-17.8125 10.8125 -17.8125 10.8125 -18 8 C-15.8125 5.375 -15.8125 5.375 -13 3 C-12.4225 2.401875 -11.845 1.80375 -11.25 1.1875 C-7.66401673 -0.70510228 -3.97341386 -0.22923542 0 0 Z " fill="#F8FDFE" transform="translate(44,22)"/>
</svg>
